<svg width="512" height="512" xmlns="http://www.w3.org/2000/svg">

 <g>
  <title>background</title>
  <rect fill="none" id="canvas_background" height="402" width="582" y="-1" x="-1"/>
 </g>
 <g>
  <title>Layer 1</title>
  <circle id="svg_1" fill="#BBBBBB" r="256" cy="256" cx="256"/>
  <path id="svg_2" fill="#525353" d="m423.424,449.673c-14.182,12.255 -29.714,22.989 -46.37,31.932c-4.864,2.628 -9.83,5.102 -14.899,7.406c-32.341,14.762 -68.284,22.989 -106.155,22.989s-73.814,-8.226 -106.154,-22.989c-5.052,-2.304 -10.017,-4.762 -14.899,-7.389c-16.64,-8.942 -32.188,-19.694 -46.37,-31.949c41.796,-44.766 101.341,-72.755 167.424,-72.755c66.081,0 125.627,27.988 167.423,72.755z"/>
  <path id="svg_3" d="m384.495,477.457c-5.376,3.141 -10.871,6.059 -16.47,8.79c-33.843,16.503 -71.85,25.753 -112.025,25.753c-40.192,0 -78.216,-9.267 -112.042,-25.77c-5.598,-2.73 -11.076,-5.665 -16.435,-8.79c34.97,-32.426 79.718,-51.882 128.478,-51.882c48.776,0 93.525,19.456 128.494,51.899z"/>
  <g id="svg_4">
   <polygon id="svg_5" fill="#666666" points="199.681,384.29 170.667,384.29 147.626,456.465 176.639,456.465  "/>
   <polygon id="svg_6" fill="#666666" points="312.32,384.29 341.333,384.29 364.375,456.465 335.361,456.465  "/>
  </g>
  <path id="svg_7" fill="#525353" d="m436.463,257.706c0,0.665 0,1.331 -0.017,1.997c-0.29,27.973 -6.945,54.408 -18.586,77.943c-11.759,23.825 -28.604,44.663 -49.135,61.134c-30.958,24.849 -70.263,39.697 -113.015,39.697c-76.954,0 -142.66,-48.077 -168.738,-115.832c-7.782,-20.156 -12.032,-42.052 -12.032,-64.938c0,-99.823 80.93,-180.754 180.77,-180.754c67.498,0 126.378,37.018 157.406,91.87c5.99,10.582 10.957,21.828 14.728,33.604c5.598,17.426 8.619,35.994 8.619,55.279z"/>
  <g id="svg_8">
   <path id="svg_9" fill="#FFFFFF" d="m372.054,393.966l-3.328,4.814c-30.958,24.849 -70.263,39.697 -113.015,39.697c-76.954,0 -142.66,-48.077 -168.738,-115.832c1.503,-22.63 7.834,-43.946 17.971,-62.941c26.335,-49.34 78.319,-82.91 138.138,-82.91c25.463,0 50.005,9.353 72.943,23.945l9.37,20.275l9.677,25.037l36.982,147.915z"/>
   <path id="svg_10" fill="#FFFFFF" d="m436.463,257.706c0,0.665 0,1.331 -0.017,1.997c-0.29,27.973 -6.945,54.408 -18.586,77.943l-27.324,-18.21l-35.721,-59.734l-15.053,-25.174c3.84,-30.294 27.734,-58.454 51.626,-58.454c1.28,0 2.56,0.119 3.84,0.358c6.093,1.11 12.22,4.762 18.074,9.865c5.153,4.488 10.07,10.103 14.541,16.128c5.599,17.428 8.62,35.996 8.62,55.281z"/>
  </g>
  <path id="svg_11" d="m341.47,225.997c0,0 3.84,-67.84 40.534,-72.534s49.066,80.214 49.066,80.214l-89.6,-7.68z"/>
  <path id="svg_12" fill="#BCBEBF" d="m413.304,186.3l0,73.403l-58.488,0l-15.053,-25.174c3.84,-30.294 27.734,-58.454 51.626,-58.454c7.323,0.002 14.832,4.047 21.915,10.225z"/>
  <path id="svg_13" fill="#BBBBBB" d="m338.081,419.134c56.542,-7.868 112.606,-67.414 112.606,-67.414c-21.334,-30.02 -62.003,-92.194 -112.879,-133.495l-0.017,0c-4.574,-3.721 -9.233,-7.27 -13.961,-10.598c-2.902,-2.048 -5.854,-4.01 -8.806,-5.888c-0.358,16.23 -1.28,39.902 -3.498,58.966c-0.068,0.58 -0.137,1.143 -0.205,1.706c-2.953,23.945 -23.586,65.894 -34.167,89.856l0,0.017c-3.754,8.483 -6.23,14.711 -6.23,17.084c0,9.097 -5.12,50.62 55.177,50.62c0.768,0 1.519,-0.017 2.287,-0.034c3.224,-0.087 6.467,-0.36 9.693,-0.82"/>
  <path id="svg_14" d="m316.024,200.738c-31.727,-62.635 -89.707,-59.093 -114.927,-49.835c-33.706,12.374 -60.16,44.374 -58.026,73.386"/>
  <path id="svg_15" fill="#BCBEBF" d="m267.946,179.712c16.623,3.823 32.7,11.247 48.077,21.026c-0.17,8.106 -0.495,18.09 -1.058,28.416c-0.547,10.342 -1.331,21.026 -2.441,30.55l-42.359,0l-165.222,0c26.334,-49.34 78.319,-82.91 138.138,-82.91c8.397,0 16.708,1.024 24.865,2.918"/>
  <path id="svg_16" d="m288.99,362.103c-25.032,-5.12 -73.956,-35.272 -73.956,-35.272s34.134,46.08 80.214,59.164l-6.258,-23.892z"/>
  <path id="svg_17" d="m387.414,331.946l-48.333,86.186l-9.695,0.819c-0.768,0.017 -1.518,0.034 -2.286,0.034c-60.297,0 -55.177,-41.523 -55.177,-50.62c0,-2.373 2.474,-8.602 6.229,-17.083l0,-0.018c9.711,-21.418 68.745,-64.495 71.083,-109.601c2.339,-45.106 38.179,90.283 38.179,90.283z"/>
  <path id="svg_18" fill="#666666" d="m451.686,350.72l-0.017,0.017l-0.017,0.034c-1.724,1.792 -56.918,59.615 -112.572,67.363c-19.951,-15.326 -26.59,-29.919 -23.074,-48.111c2.304,-11.878 8.943,-25.31 19.063,-41.489c25.6,-40.96 21.043,-81.92 3.721,-111.309l0.017,0c50.876,41.301 91.547,103.475 112.879,133.495z"/>
  <path id="svg_19" fill="#666666" d="m451.67,350.737l-0.017,0.034c-1.724,1.792 -56.918,59.615 -112.572,67.363c-19.951,-15.326 -26.59,-29.919 -23.074,-48.111l0.017,0c88.456,12.851 134.451,-18.467 135.646,-19.286z"/>
  <g id="svg_20">
   <path id="svg_21" fill="#E2DEDC" d="m316.024,200.738c-0.171,8.106 -0.495,18.09 -1.059,28.416c-0.546,10.342 -1.331,21.025 -2.441,30.55l-42.359,0l-2.218,-24.457l0,-55.535c16.623,3.823 32.699,11.246 48.077,21.026z"/>
   <path id="svg_22" fill="#E2DEDC" d="m436.463,257.706c0,0.665 0,1.331 -0.017,1.997l-41.216,0l0,-83.268c6.093,1.11 12.22,4.762 18.074,9.865c5.153,4.488 10.07,10.103 14.541,16.128c5.597,17.425 8.618,35.993 8.618,55.278z"/>
  </g>
  <polygon id="svg_23" fill="#919494" points="287.853,254.583 267.373,190.299 251.513,241.579 185.453,259.703 273.63,278.477 "/>
  <circle id="svg_24" r="24.462" cy="259.7" cx="267.94"/>
  <polygon id="svg_25" fill="#919494" points="413.304,212.77 403.766,254.726 422.891,255.02 "/>
  <ellipse id="svg_26" ry="17.857" rx="9.936" cy="259.7" cx="413.31"/>
  <ellipse id="svg_27" fill="#FFFFFF" ry="6.912" rx="3.846" cy="250.47" cx="413.31"/>
  <circle id="svg_28" fill="#E2DEDC" r="8.668" cy="247.76" cx="267.94"/>
  <path id="svg_29" fill="#BBBBBB" d="m368.026,456.465l0,29.782c-33.844,16.503 -71.851,25.753 -112.026,25.753c-40.192,0 -78.216,-9.267 -112.042,-25.77l0,-29.764l224.068,0l0,-0.001z"/>
  <path id="svg_30" fill="#999999" d="m368.026,456.465l0,29.782c-33.844,16.503 -71.851,25.753 -112.026,25.753l0,-55.535l112.026,0z"/>
  <path id="svg_31" fill="#444444" d="m377.055,481.604c-4.864,2.628 -9.83,5.102 -14.899,7.406l-2.167,-27.921l-207.976,0l-2.167,27.921c-5.052,-2.304 -10.017,-4.762 -14.899,-7.39l2.867,-32.478l236.374,0l2.867,32.462z"/>
  <g id="svg_32"/>
  <g id="svg_33"/>
  <g id="svg_34"/>
  <g id="svg_35"/>
  <g id="svg_36"/>
  <g id="svg_37"/>
  <g id="svg_38"/>
  <g id="svg_39"/>
  <g id="svg_40"/>
  <g id="svg_41"/>
  <g id="svg_42"/>
  <g id="svg_43"/>
  <g id="svg_44"/>
  <g id="svg_45"/>
  <g id="svg_46"/>
 </g>
</svg>