<svg width="512" height="512" xmlns="http://www.w3.org/2000/svg">

 <g>
  <title>background</title>
  <rect fill="none" id="canvas_background" height="402" width="582" y="-1" x="-1"/>
 </g>
 <g>
  <title>Layer 1</title>
  <path id="svg_1" fill="#5C5560" d="m512,256c0,46.049 -12.152,89.255 -33.447,126.589c-1.567,2.759 -3.323,5.705 -5.256,8.808c-27.136,43.468 -66.957,78.211 -114.291,99.035c-7.795,3.427 -15.799,6.489 -23.98,9.132c-4.827,1.567 -9.718,2.999 -14.66,4.274c-4.378,1.139 -8.808,2.163 -13.27,3.062c-16.51,3.345 -33.594,5.1 -51.096,5.1c-50.761,0 -98.053,-14.764 -137.843,-40.249c-26.049,-16.666 -48.87,-37.93 -67.344,-62.631c-31.911,-42.706 -50.813,-95.713 -50.813,-153.12c0,-136.014 106.078,-247.254 240.013,-255.509c3.323,-0.209 6.656,-0.345 10.01,-0.418l0.042,0c1.975,-0.052 3.95,-0.073 5.935,-0.073c141.385,0 256,114.615 256,256z"/>
  <path id="svg_2" fill="#DDDDDD" d="m478.553,382.589c-1.567,2.759 -3.323,5.705 -5.256,8.808c-27.136,43.468 -66.957,78.211 -114.291,99.035c-7.795,3.427 -15.799,6.489 -23.98,9.132c-4.827,1.567 -9.718,2.999 -14.66,4.274l32.172,-444.771l39.999,34.994l42.998,1.003l43.018,287.525z"/>
  <path id="svg_3" fill="#BBBBBB" d="m334.503,64.92c-10.909,-28.421 -28.212,-53.77 -56.592,-49.246c-6.51,-8.631 -15.475,-14.858 -27.847,-15.6l-0.042,0c-0.814,-0.053 -1.639,-0.074 -2.486,-0.074c-2.529,0 -5.036,0.167 -7.523,0.491c-44.116,5.778 -80.238,61.67 -93.8,125.555l-61.67,20.02l-33.73,263.053c18.474,24.701 41.294,45.965 67.344,62.631l188.938,35.15c9.509,-1.923 18.829,-4.378 27.93,-7.335l17.512,-440.498l-18.034,5.853zm-168.74,54.784c0,0 8.777,-27.638 20.773,-52.642c12.006,-24.994 51.001,-61.001 73.007,-47.501c0.658,0.408 1.296,0.846 1.902,1.317c-25.266,11.661 -45.108,38.922 -55.223,85.692l-40.459,13.134zm110.978,-36.029l-49.622,16.102c0,0 9.467,-51.493 44.534,-64.136c7.753,19.916 5.088,48.034 5.088,48.034zm18.296,-5.945c0,0 0,-23.291 -7.795,-44.377c17.983,1.881 27.209,21.138 31.754,36.603l-23.959,7.774z"/>
  <path id="svg_4" fill="#FDFEFD" d="m124.166,361.18c8.989,6.496 17.982,13.095 28.394,17.355c4.479,1.833 9.049,3.257 13.847,4.031c8.615,1.39 16.428,0.24 21.909,-7.294c5.745,-7.896 4.726,-16.319 0.905,-24.618c-2.627,-5.703 -7.027,-10.088 -11.685,-14.164c-6.017,-5.263 -12.098,-10.453 -18.208,-15.608c-19.831,-16.728 -25.971,-38.429 -22.478,-63.301c6.09,-43.363 38.335,-74.347 81.947,-79.659c18.748,-2.284 37.14,-2.101 55.257,4.017c4.067,1.373 4.472,3.029 3.173,6.77c-5.674,16.335 -11.169,32.735 -16.485,49.19c-1.073,3.322 -1.957,3.871 -5.355,2.478c-13.872,-5.686 -28.219,-9.078 -43.355,-6.541c-10.524,1.764 -18.977,6.377 -21.938,17.566c-2.084,7.876 0.677,14.423 6.278,19.929c7.749,7.619 16.779,13.654 25.338,20.269c10.342,7.995 19.913,16.743 26.603,28.148c11.917,20.317 12.047,42.002 5.861,63.793c-10.463,36.858 -42.119,56.749 -80.196,51.942c-22.131,-2.794 -41.667,-10.842 -58.611,-25.37c-3.81,-3.266 -5.243,-6.207 -3.364,-11.47c3.967,-11.105 6.995,-22.546 10.398,-33.852c0.375,-1.245 0.428,-2.629 1.765,-3.611z"/>
  <g id="svg_5"/>
  <g id="svg_6"/>
  <g id="svg_7"/>
  <g id="svg_8"/>
  <g id="svg_9"/>
  <g id="svg_10"/>
  <g id="svg_11"/>
  <g id="svg_12"/>
  <g id="svg_13"/>
  <g id="svg_14"/>
  <g id="svg_15"/>
  <g id="svg_16"/>
  <g id="svg_17"/>
  <g id="svg_18"/>
  <g id="svg_19"/>
 </g>
</svg>