<svg width="512.001" height="512.001" xmlns="http://www.w3.org/2000/svg">

 <g>
  <title>background</title>
  <rect fill="none" id="canvas_background" height="402" width="582" y="-1" x="-1"/>
 </g>
 <g>
  <title>Layer 1</title>
  <path id="svg_1" fill="#DDDDDD" d="m512,256c0,2.1 -0.021,4.19 -0.073,6.269c-0.115,4.775 -0.366,9.519 -0.731,14.221c-0.439,5.559 -1.066,11.065 -1.86,16.509c-17.921,123.853 -124.521,219.001 -253.336,219.001c-132.995,0 -242.312,-101.418 -254.809,-231.142c-0.783,-8.181 -1.191,-16.467 -1.191,-24.858c0,-9.843 0.554,-19.56 1.64,-29.111c7.722,-68.263 42.298,-128.386 92.913,-169.555c16.468,-13.406 34.628,-24.806 54.115,-33.813c32.643,-15.099 69.005,-23.521 107.332,-23.521s74.689,8.422 107.332,23.521c12.434,5.747 24.325,12.466 35.579,20.052c57.469,38.734 98.356,100.174 109.819,171.457c0.888,5.444 1.588,10.951 2.111,16.509c0.449,4.702 0.773,9.446 0.961,14.221c0.135,3.396 0.198,6.813 0.198,10.24z"/>
  <g id="svg_2">
   <path id="svg_3" fill="#353535" d="m83.08,213.191c-19.028,0 -34.45,12.267 -34.45,40.939c0,28.682 15.423,40.939 34.45,40.939s34.45,-11.076 34.45,-40.939c0,-29.467 -15.423,-40.939 -34.45,-40.939zm0,64.679c-6.625,0 -12.006,-7.116 -12.006,-23.74s5.381,-23.74 12.006,-23.74s11.995,6.656 11.995,23.74c0,17.314 -5.371,23.74 -11.995,23.74z"/>
   <path id="svg_4" fill="#353535" d="m32.569,231.476c4.535,0 8.485,0.345 11.64,1.62l0,-18.704c-3.448,-1.003 -7.137,-1.536 -11.003,-1.536c-12.664,0 -24.001,5.204 -31.566,14.033c-1.086,9.55 -1.64,19.268 -1.64,29.111c0,8.391 0.408,16.677 1.191,24.858c7.565,9.132 19.101,14.545 32.016,14.545c3.866,0 7.555,-0.533 11.003,-1.536l0,-19.425c-3.49,1.212 -7.784,2.351 -11.64,2.351c-10.167,0 -18.411,-9.258 -18.411,-22.664c-0.001,-13.405 8.244,-22.653 18.41,-22.653z"/>
   <path id="svg_5" fill="#353535" d="m459.337,231.476c4.524,0 8.485,0.345 11.63,1.62l0,-18.704c-3.448,-1.003 -7.126,-1.536 -10.992,-1.536c-22.8,0 -41.273,16.854 -41.273,41.273c0,24.43 18.474,41.273 41.273,41.273c3.866,0 7.544,-0.533 10.992,-1.536l0,-19.425c-3.479,1.212 -7.785,2.351 -11.63,2.351c-10.167,0 -18.411,-9.258 -18.411,-22.664c0,-13.404 8.244,-22.652 18.411,-22.652z"/>
   <polygon id="svg_6" fill="#353535" points="200.382,215.03 174.009,215.03 164.836,258.833 155.663,215.03 129.288,215.03    119.198,293.003 139.15,293.003 144.654,239.568 158.414,293.003 164.836,293.003 171.257,293.003 185.017,239.568    190.521,293.003 210.473,293.003  "/>
   <polygon id="svg_7" fill="#353535" points="295.664,215.03 269.29,215.03 260.117,258.833 250.944,215.03 224.571,215.03    214.48,293.003 234.431,293.003 239.936,239.568 253.696,293.003 260.117,293.003 266.539,293.003 280.298,239.568    285.803,293.003 305.755,293.003  "/>
   <polygon id="svg_8" fill="#353535" points="355.413,231.541 355.413,215.03 333.855,215.03 323.535,215.03 312.757,215.03    312.757,293.003 323.535,293.003 333.855,293.003 355.413,293.003 355.413,276.491 333.855,276.491 333.855,262.273    352.432,262.273 352.432,245.76 333.855,245.76 333.855,231.541  "/>
   <path id="svg_9" fill="#353535" d="m498.5,262.27l0,14.221l12.695,0c-0.439,5.559 -1.066,11.065 -1.86,16.509l-31.943,0l0,-77.97l31.336,0c0.888,5.444 1.588,10.951 2.111,16.509l-12.339,0l0,14.221l13.302,0c0.136,3.396 0.199,6.813 0.199,10.24c0,2.1 -0.021,4.19 -0.073,6.269l-13.428,0.001l0,0z"/>
   <path id="svg_10" fill="#353535" d="m405.232,257.818c7.053,-3.166 12.79,-8.934 12.79,-19.623c0,-17.889 -18.119,-23.165 -30.96,-23.165l-25.684,0l0,77.97l21.096,0l0,-35.777l17.429,35.777l22.246,0l-16.917,-35.182zm-22.758,-9.655c-0.23,0 -0.46,0 -0.69,-0.01l0,-18.087c0.23,-0.01 0.46,-0.01 0.69,-0.01c7.774,0 14.075,2.403 14.075,9.059c0,7.105 -6.301,9.048 -14.075,9.048z"/>
  </g>
  <path id="svg_11" fill="#444444" d="m371.674,23.518l-248.607,0c-15.751,0 -28.518,12.768 -28.518,28.518l0,93.607c0,15.751 12.769,28.518 28.518,28.518l118.314,0l52.436,30.465l-10.472,-30.465l88.329,0c15.751,0 28.518,-12.768 28.518,-28.518l0,-93.607c0.001,-15.751 -12.768,-28.518 -28.518,-28.518z"/>
  <g id="svg_12">
   <path id="svg_13" fill="#FFFFFF" d="m138.998,159.93c-0.043,0 -0.084,0 -0.126,-0.001c-3.428,-0.041 -6.619,-1.754 -8.547,-4.589c-3.045,-4.478 -7.509,-14.802 -15.059,-55.225c-4.047,-21.666 -7.089,-42.07 -7.119,-42.273c-0.852,-5.73 3.103,-11.064 8.833,-11.916c5.726,-0.853 11.064,3.102 11.916,8.833c0.029,0.199 3.003,20.136 6.96,41.345c2.286,12.251 4.241,21.39 5.865,28.19c9.89,-18.226 21.962,-42.736 27.276,-53.805c1.946,-4.052 6.256,-6.414 10.722,-5.871c4.464,0.543 8.083,3.87 9.001,8.271c1.737,8.308 6.237,25.608 12.63,41.31c2.358,-22.325 6.921,-50.657 15.62,-68.49c2.539,-5.206 8.819,-7.368 14.025,-4.828s7.368,8.819 4.828,14.025c-13.832,28.356 -15.903,92.95 -15.923,93.6c-0.124,4.184 -2.724,7.893 -6.614,9.436c-3.891,1.544 -8.326,0.628 -11.286,-2.332c-9.397,-9.397 -17.963,-25.591 -25.462,-48.132c-0.324,-0.975 -0.639,-1.94 -0.946,-2.893c-9.194,18.298 -21.28,41.482 -28.065,50.964c-1.972,2.75 -5.149,4.381 -8.529,4.381z"/>
   <path id="svg_14" fill="#FFFFFF" d="m301.819,71.419c-4.368,-8.871 -11.87,-15.005 -21.671,-17.732c-11.18,-3.103 -23.291,1.024 -32.402,11.055c-10.815,11.88 -18.704,34.147 -8.422,60.98c7.043,18.39 18.119,21.765 25.276,21.765c0.773,0 1.494,-0.042 2.163,-0.104c19.048,-1.808 35.046,-27.011 38.128,-44.293c2.215,-12.382 1.181,-23.04 -3.072,-31.671zm-17.575,27.982c-0.972,5.402 -4.347,12.549 -8.62,18.202c-4.389,5.82 -8.694,8.694 -10.836,8.892c-1.306,0.125 -3.73,-2.675 -5.872,-8.276c-4.305,-11.222 -5.747,-28.275 4.347,-39.372c3.009,-3.312 6.51,-5.183 9.519,-5.183c0.606,0 1.191,0.073 1.745,0.23c11.232,3.125 11.482,15.591 9.717,25.507z"/>
   <path id="svg_15" fill="#FFFFFF" d="m379.737,71.419c-2.194,-4.43 -5.162,-8.192 -8.798,-11.17c-3.657,-2.978 -7.983,-5.193 -12.884,-6.562c-11.17,-3.103 -23.28,1.024 -32.402,11.055c-10.804,11.88 -18.693,34.147 -8.422,60.98c7.043,18.39 18.119,21.765 25.276,21.765c0.773,0 1.505,-0.042 2.173,-0.104c19.038,-1.808 35.035,-27.011 38.118,-44.293c2.216,-12.382 1.181,-23.04 -3.061,-31.671zm-17.586,27.982c-0.961,5.402 -4.347,12.549 -8.61,18.202c-4.399,5.82 -8.704,8.694 -10.846,8.892c-1.296,0.125 -3.73,-2.675 -5.872,-8.276c-4.295,-11.222 -5.736,-28.275 4.347,-39.372c3.02,-3.312 6.52,-5.183 9.519,-5.183c0.606,0 1.191,0.073 1.755,0.23c11.233,3.125 11.473,15.591 9.707,25.507z"/>
  </g>
  <g id="svg_16"/>
  <g id="svg_17"/>
  <g id="svg_18"/>
  <g id="svg_19"/>
  <g id="svg_20"/>
  <g id="svg_21"/>
  <g id="svg_22"/>
  <g id="svg_23"/>
  <g id="svg_24"/>
  <g id="svg_25"/>
  <g id="svg_26"/>
  <g id="svg_27"/>
  <g id="svg_28"/>
  <g id="svg_29"/>
  <g id="svg_30"/>
 </g>
</svg>