<svg width="447.674" height="447.674" xmlns="http://www.w3.org/2000/svg">

 <g>
  <title>background</title>
  <rect fill="none" id="canvas_background" height="402" width="582" y="-1" x="-1"/>
 </g>
 <g>
  <title>Layer 1</title>
  <g id="svg_1">
   <path id="svg_2" fill="#BBBBBB" d="m134.289,138.16l-24.722,0l67.399,190.521l37.732,-107.825l-29.254,-82.696l-26.084,0l0,-18.154l115.508,0l0,18.154l-27.049,0l67.398,190.521l24.227,-69.234c31.781,-88.702 -26.048,-116.333 -26.048,-136.129s16.048,-35.843 35.843,-35.843c1.071,0 2.111,0.058 3.13,0.153c-33.541,-31.663 -78.768,-51.08 -128.534,-51.08c-65.027,0 -122.306,33.146 -155.884,83.458l66.336,0l0,18.154l0.002,0l0,0z"/>
   <path id="svg_3" fill="#BBBBBB" d="m36.548,223.837c0,71.704 40.302,133.986 99.483,165.458l-84.52,-238.919c-9.628,22.556 -14.963,47.385 -14.963,73.461z"/>
   <path id="svg_4" fill="#BBBBBB" d="m386.833,131.547c2.679,15.774 1.868,33.503 -2.243,51.301l0.745,0l-2.832,8.092l0,0c-1.678,5.843 -3.791,11.82 -6.191,17.693l-64.444,180.541c59.057,-31.51 99.256,-93.725 99.256,-165.338c0,-33.557 -8.834,-65.048 -24.291,-92.289z"/>
   <path id="svg_5" fill="#BBBBBB" d="m166.075,402.033c18.195,5.894 37.603,9.091 57.762,9.091c19.228,0 37.777,-2.902 55.239,-8.285l-54.784,-154.862l-58.217,154.056z"/>
   <path id="svg_6" fill="#BBBBBB" d="m382.113,65.56c-42.277,-42.277 -98.488,-65.56 -158.277,-65.56s-115.999,23.283 -158.276,65.56s-65.56,98.487 -65.56,158.277c0,59.789 23.283,115.999 65.56,158.276s98.488,65.56 158.277,65.56s115.999,-23.283 158.277,-65.56c42.277,-42.277 65.56,-98.488 65.56,-158.276c-0.001,-59.79 -23.284,-116 -65.561,-158.277zm-158.277,366.323c-114.717,0 -208.046,-93.329 -208.046,-208.046s93.329,-208.047 208.046,-208.047s208.046,93.33 208.046,208.047s-93.328,208.046 -208.046,208.046z"/>
  </g>
  <g id="svg_7"/>
  <g id="svg_8"/>
  <g id="svg_9"/>
  <g id="svg_10"/>
  <g id="svg_11"/>
  <g id="svg_12"/>
  <g id="svg_13"/>
  <g id="svg_14"/>
  <g id="svg_15"/>
  <g id="svg_16"/>
  <g id="svg_17"/>
  <g id="svg_18"/>
  <g id="svg_19"/>
  <g id="svg_20"/>
  <g id="svg_21"/>
 </g>
</svg>