<svg id="Layer_2" enable-background="new 0 0 96 96" height="512" viewBox="0 0 96 96" width="512" xmlns="http://www.w3.org/2000/svg"><path d="m59 76h-22v11l2 2h18l2-2z" fill="#c9c7c6"/><path d="m48 93c-1.657 0-3-1.343-3-3v-1h6v1c0 1.657-1.343 3-3 3z" fill="#9c9b9a"/><path d="m54 16c0 1.66 1.34 3 3 3 .77 0 1.47-.29 2-.77v8.77h-8.77c.48.53.77 1.23.77 2 0 1.66-1.34 3-3 3s-3-1.34-3-3c0-.77.29-1.47.77-2h-8.77v-8.77c.53.48 1.23.77 2 .77 1.66 0 3-1.34 3-3s-1.34-3-3-3c-.77 0-1.47.29-2 .77v-8.74c2.77-1.07 5.73-1.74 8.8-1.95 4.67-.32 9.14.39 13.2 1.93v8.76c-.53-.48-1.23-.77-2-.77-1.66 0-3 1.34-3 3z" fill="#ddd"/><path d="m54 39c0 1.66 1.34 3 3 3 .77 0 1.47-.29 2-.77v10.77h-22v-10.77c-.53.48-1.23.77-2 .77-1.66 0-3-1.34-3-3s1.34-3 3-3c.77 0 1.47.29 2 .77v-9.77h8.77c-.48.53-.77 1.23-.77 2 0 1.66 1.34 3 3 3s3-1.34 3-3c0-.77-.29-1.47-.77-2h8.77v9.77c-.53-.48-1.23-.77-2-.77-1.66 0-3 1.34-3 3z" fill="#ef6662"/><path d="m37 41.23c-.53.48-1.23.77-2 .77-1.66 0-3-1.34-3-3s1.34-3 3-3c.77 0 1.47.29 2 .77v-9.77h-19.19c-.39 1.67-.658 3.384-.76 5.14-.432 7.431 1.762 14.316 5.725 19.86h14.225z" fill="#ddd"/><path d="m53 64c0 1.66-1.34 3-3 3-.77 0-1.47-.29-2-.77v9.77h-11l-5-5-.31-1.23c-1.55-6.22-4.53-11.95-8.4-17.06-.18-.23-.34-.47-.51-.71h25.22v9.77c.53-.48 1.23-.77 2-.77 1.66 0 3 1.34 3 3z" fill="#6ebaed"/><path d="m37 18.23c.53.48 1.23.77 2 .77 1.66 0 3-1.34 3-3s-1.34-3-3-3c-.77 0-1.47.29-2 .77v-8.74c-9.529 3.637-16.842 11.906-19.19 21.97h19.19z" fill="#5e92bc"/><path d="m59 5.01v8.76c-.53-.48-1.23-.77-2-.77-1.66 0-3 1.34-3 3s1.34 3 3 3c.77 0 1.47-.29 2-.77v8.77h19.199c-2.339-10.129-9.634-18.357-19.199-21.99z" fill="#c9c7c6"/><path d="m48 52v9.77c.53-.48 1.23-.77 2-.77 1.66 0 3 1.34 3 3s-1.34 3-3 3c-.77 0-1.47-.29-2-.77v9.77h11l5-5 .31-1.24c1.52-6.09 4.3-11.79 8.16-16.74.261-.334.514-.675.761-1.02h-14.231z" fill="#dfdddc"/><path d="m78.199 27h-19.199v9.77c-.53-.48-1.23-.77-2-.77-1.66 0-3 1.34-3 3s1.34 3 3 3c.77 0 1.47-.29 2-.77v10.77h14.231c3.63-5.074 5.769-11.287 5.769-18 0-2.409-.282-4.75-.801-7z" fill="#f2ae40"/><path d="m22.493 53.313c4.02 5.309 6.788 10.927 8.228 16.7l.31 1.23c.044.175.135.335.263.463l4.706 4.708v10.586c0 .266.105.52.293.707l2 2c.188.188.441.293.707.293h5c0 2.206 1.794 4 4 4s4-1.794 4-4h5c.266 0 .52-.105.707-.293l2-2c.188-.187.293-.441.293-.707v-10.586l4.707-4.707c.128-.128.22-.289.264-.465l.309-1.24c1.495-5.987 4.18-11.494 7.979-16.368 4.41-5.661 6.741-12.45 6.741-19.634 0-13.209-8.297-25.234-20.645-29.925-.001 0-.002 0-.003-.001-4.333-1.645-8.911-2.309-13.621-1.992-3.122.214-6.178.891-9.082 2.012-.002.001-.004.001-.006.002-11.78 4.495-19.862 15.479-20.592 27.986-.443 7.626 1.846 15.167 6.442 21.231zm25.507 38.687c-1.103 0-2-.897-2-2h4c0 1.103-.897 2-2 2zm10-13h-13c-.553 0-1 .447-1 1s.447 1 1 1h13v2h-5c-.553 0-1 .447-1 1s.447 1 1 1h5v1.586l-1.414 1.414h-17.172l-1.414-1.414v-9.586h20zm5.339-9.482-.242.972-4.511 4.51h-9.586v-7.127c.324.084.659.127 1 .127 2.206 0 4-1.794 4-4s-1.794-4-4-4c-.341 0-.676.043-1 .127v-7.127h22.24c-3.733 4.948-6.398 10.497-7.901 16.518zm-25.933-29.202c-.361-.16-.783-.093-1.077.172-.364.33-.837.512-1.329.512-1.103 0-2-.897-2-2s.897-2 2-2c.492 0 .965.182 1.329.512.294.265.716.331 1.077.172.362-.161.594-.519.594-.914v-8.77h6.127c-.084.324-.127.659-.127 1 0 2.206 1.794 4 4 4s4-1.794 4-4c0-.341-.043-.676-.127-1h6.127v7.127c-.324-.084-.659-.127-1-.127-2.206 0-4 1.794-4 4s1.794 4 4 4c.341 0 .676-.043 1-.127v8.127h-20v-9.77c0-.395-.232-.753-.594-.914zm22-25.632c.362-.161.594-.519.594-.914v-7.272c8.327 3.644 14.479 10.924 16.882 19.502h-13.882c-.553 0-1 .447-1 1s.447 1 1 1h14.37c.404 1.954.63 3.96.63 6 0 6.154-1.845 11.989-5.314 17h-12.686v-9.77c0-.396-.232-.754-.594-.914s-.784-.093-1.077.172c-.364.33-.837.512-1.329.512-1.103 0-2-.897-2-2s.897-2 2-2c.492 0 .965.182 1.329.512.293.265.715.331 1.077.172.362-.161.594-.519.594-.914v-9.77-8.77c0-.396-.232-.754-.594-.914-.362-.159-.784-.093-1.077.172-.364.33-.837.512-1.329.512-1.103 0-2-.897-2-2s.897-2 2-2c.492 0 .965.182 1.329.512.293.264.715.331 1.077.172zm-21.406-8.959c2.527-.909 5.17-1.462 7.868-1.646 4.176-.293 8.259.261 12.132 1.629v6.419c-.324-.084-.659-.127-1-.127-2.206 0-4 1.794-4 4s1.794 4 4 4c.341 0 .676-.043 1-.127v6.127h-7.77c-.396 0-.754.232-.914.594s-.093.784.172 1.077c.33.364.512.837.512 1.329 0 1.103-.897 2-2 2s-2-.897-2-2c0-.492.182-.965.512-1.329.265-.293.332-.716.172-1.077s-.519-.594-.914-.594h-7.77v-6.127c.324.084.659.127 1 .127 2.206 0 4-1.794 4-4s-1.794-4-4-4c-.341 0-.676.043-1 .127zm-2 .796v7.249c0 .396.232.754.594.914.361.159.783.093 1.077-.172.364-.33.837-.512 1.329-.512 1.103 0 2 .897 2 2s-.897 2-2 2c-.492 0-.965-.182-1.329-.512-.294-.265-.716-.331-1.077-.172-.362.161-.594.519-.594.914v7.77h-16.922c2.386-8.594 8.563-15.817 16.922-19.479zm-17.952 25.677c.083-1.423.269-2.825.55-4.198h17.402v7.127c-.324-.084-.659-.127-1-.127-2.206 0-4 1.794-4 4s1.794 4 4 4c.341 0 .676-.043 1-.127v8.127h-8c-.553 0-1 .447-1 1s.447 1 1 1h19v8.77c0 .396.232.754.594.914.362.159.784.093 1.077-.172.364-.33.837-.512 1.329-.512 1.103 0 2 .897 2 2s-.897 2-2 2c-.492 0-.965-.182-1.329-.512-.293-.265-.715-.331-1.077-.172-.362.161-.594.519-.594.914v8.77h-9.586l-4.512-4.512-.241-.961c-1.505-6.034-4.39-11.896-8.574-17.422-4.31-5.685-6.454-12.755-6.039-19.907z"/><circle cx="41" cy="80" r="1"/><circle cx="45" cy="84" r="1"/><circle cx="49" cy="84" r="1"/><circle cx="41" cy="84" r="1"/><path d="m39 57h4v4c0 .553.447 1 1 1s1-.447 1-1v-5c0-.553-.447-1-1-1h-5c-.553 0-1 .447-1 1s.447 1 1 1z"/><path d="m83 34c0 .553.447 1 1 1h4c.553 0 1-.447 1-1s-.447-1-1-1h-4c-.553 0-1 .447-1 1z"/><path d="m85.246 19.38-3.759 1.368c-.52.188-.787.763-.598 1.281.147.406.531.658.939.658.113 0 .229-.02.342-.061l3.759-1.368c.52-.188.787-.763.598-1.281-.188-.518-.762-.787-1.281-.597z"/><path d="m76.22 11.625 3.064-2.571c.423-.354.479-.985.123-1.408-.353-.424-.983-.479-1.408-.123l-3.064 2.571c-.423.354-.479.985-.123 1.408.197.236.48.357.767.357.226 0 .453-.077.641-.234z"/><path d="m20.422 11.859c.286 0 .569-.121.767-.357.355-.423.3-1.054-.123-1.408l-3.064-2.571c-.424-.355-1.055-.301-1.408.123-.355.423-.3 1.054.123 1.408l3.064 2.571c.187.157.414.234.641.234z"/><path d="m14.513 20.748-3.759-1.368c-.517-.189-1.093.079-1.281.598-.189.519.078 1.093.598 1.281l3.759 1.368c.112.041.229.061.342.061.408 0 .792-.252.939-.658.189-.519-.079-1.093-.598-1.282z"/><path d="m7 34c0 .553.447 1 1 1h4c.553 0 1-.447 1-1s-.447-1-1-1h-4c-.553 0-1 .447-1 1z"/><path d="m15.11 45.971c-.188-.519-.765-.787-1.281-.598l-3.759 1.368c-.52.188-.787.763-.598 1.281.147.406.531.658.939.658.113 0 .229-.02.342-.061l3.759-1.368c.52-.188.788-.762.598-1.28z"/><path d="m21.189 56.498c-.353-.423-.983-.479-1.408-.123l-3.064 2.571c-.423.354-.479.985-.123 1.408.197.236.48.357.767.357.227 0 .454-.077.642-.234l3.064-2.571c.421-.354.477-.985.122-1.408z"/><path d="m78.641 60.712c.286 0 .569-.121.767-.357.355-.423.3-1.054-.123-1.408l-3.064-2.571c-.424-.355-1.055-.3-1.408.123-.355.423-.3 1.054.123 1.408l3.064 2.571c.187.157.414.234.641.234z"/><path d="m81.487 47.252 3.759 1.368c.112.041.229.061.342.061.408 0 .792-.252.939-.658.189-.519-.078-1.093-.598-1.281l-3.759-1.368c-.518-.189-1.093.079-1.281.598-.189.517.079 1.091.598 1.28z"/></svg>